# xmcd
#
# Track frame offsets: 
#        150
#        12808
#        25473
#        36745
#        49138
#        71897
#        88164
#        100224
#        112266
#        122980
#        136408
#        150742
#        163732
#        175517
#        186604
#        197634
#        214458
#        238400
#        248794
#        259084
#        268843
#
# Disc length: 3713 seconds
#
# Revision: 0
# Processed by: cddbd v1.5.2PL0 Copyright (c) Steve Scherf et al.
# Submitted via: ExactAudioCopy v0.95b3
#
DISCID=4e0e7f15
DTITLE=The Iveys  - Maybe Tomorrow (APPLE)  FLAC
DYEAR=1900
DGENRE=
TTITLE0=Iveys - I'm Too Shy
TTITLE1=Iveys - Maybe Tomorrow
TTITLE2=Iveys - Tube Train
TTITLE3=Iveys - She Came Out Of The Cold
TTITLE4=Iveys - I've Been There Once Before
TTITLE5=Iveys - See-Saw, Granpa
TTITLE6=Iveys - Beautiful And Blue
TTITLE7=Iveys - Dear Angie
TTITLE8=Iveys - Think About The Good Times
TTITLE9=Iveys - Yesterday Ain't Coming Back
TTITLE10=Iveys - Fisherman
TTITLE11=Iveys - Maybe Tomorrow
TTITLE12=Iveys - Sali Bloo
TTITLE13=Iveys - Angelique
TTITLE14=Iveys - I'm In Love
TTITLE15=Iveys - They're Knocking Down Our Home
TTITLE16=Iveys - I've Been Waiting
TTITLE17=Iveys - No Escaping Your Love (Bonus Track)
TTITLE18=Iveys - Mrs. Jones (Previously Unreleased)
TTITLE19=Iveys - And Her Daddy's A Millionaire (Bonus Track)
TTITLE20=Iveys - Looking For My Baby (Previously Unreleased)
EXTD=
EXTT0=
EXTT1=
EXTT2=
EXTT3=
EXTT4=
EXTT5=
EXTT6=
EXTT7=
EXTT8=
EXTT9=
EXTT10=
EXTT11=
EXTT12=
EXTT13=
EXTT14=
EXTT15=
EXTT16=
EXTT17=
EXTT18=
EXTT19=
EXTT20=
PLAYORDER=
